<svg xmlns="http://www.w3.org/2000/svg" viewBox="0 0 256 153">
  <path fill="#232F3E" d="M165.6 96.6c-1.3-4.3-13.6-43.1-13.6-43.1s-11.7 39-13.4 43.1h27zm-19.1-66.2H165l26.4 75.7h-17.6l-5.3-16.7h-23.9l-5.4 16.7h-15.8l23.1-75.7zM99.5 73.1l-14 33H68.7L50.4 49.3h17.2l8.8 30.5 11.2-30.5h16.5l11.4 30.5 9-30.5h15.9l-18.1 56.8h-16.8l-14-33zM212.8 54v-4.7c11.3 0 17 5.1 17 11.9 0 6.6-6 11.1-17.9 11.1-2.9 0-6-.4-8.8-1.2v14.4c1.1.2 5.3 1.2 11.7 1.2 11.8 0 28.5-5 28.5-24 0-14.8-12-21.5-30.5-21.5-18.7 0-33 7.8-33 24.3 0 16 11.7 21 21.8 24.1 11.7 3.5 14.5 5.5 14.5 9.3 0 3.3-3.6 6.3-12.7 6.3-8.8 0-14.3-3-16-4.5V115c3.2 2 10.3 4.2 18.5 4.2 12.5 0 24.8-5.4 24.8-20 0-16.3-15-20.9-23.2-23.7-9.5-2.8-13.1-5-13.1-8.5.1-4.2 4.1-7 13.5-7zM242.9 119.8c7.5-6.5 12-14.8 12.8-18.1.1-.3-.2-.5-.4-.4-3.6 2.3-14 7.6-26 2.7-5.9-2.4-7.8-6.9-8.4-8.8-.2-.3-.6-.2-.7 0-2.3 8-11.2 22.1-34.9 22.1-16 0-26.6-7-26.6-18.6 0-14.6 13.5-23.6 42.1-26.5 6.9-.7 13.9-1.2 20.3-2.1v-1c0-6-1.5-12.8-15.9-12.8-8.2 0-15.5 2.1-20 4.6-.3.2-.6 0-.5-.3 2.1-4.9 6.2-11.8 22-11.8 22.6 0 28.7 11.3 28.7 26.5v15c0 8.1 1.7 14 6.7 19.3.2.2.6.2.8.1zm-44.5-9.6c11.8 0 22.3-5.2 28.3-9.5V86.5c-5.7 1-12 1.5-18.4 2.2-22.3 2.3-28.7 8.3-28.7 17.6 0 7.3 5 13.9 18.8 13.9zM203.4 140c-15.6 12.6-32.9 12-42.9 11.6-47.3-1.6-88.8-21.7-111.4-36.9-2.2-1.5-3.3-2.9-2.5-4 1-1.3 2.5-.7 4.5.3C68.4 122.5 111.8 141.6 160 144c27 1.4 52.8-7 74.4-23 2.2-1.6 3.8-1.7 4.9-.4 1.2 1.4 1.8 3.5-.1 5.3-8.8 8.1-19.8 12.5-35.8 14.1z"/>
</svg>
